<svg xmlns="http://www.w3.org/2000/svg" xmlns:xlink="http://www.w3.org/1999/xlink" width="80" height="80" viewBox="0 0 80 80">
  <defs>
    <style>
      .cls-1, .cls-3 {
        fill: currentColor;
      }

      .cls-2 {
        clip-path: url(#clip-path);
      }

      .cls-3 {
        stroke: rgba(0,0,0,0);
        stroke-miterlimit: 10;
      }
    </style>
    <clipPath id="clip-path">
      <rect id="矩形_2131" data-name="矩形 2131" class="cls-1" width="80" height="80" transform="translate(0 0)"/>
    </clipPath>
  </defs>
  <g id="组_3474" data-name="组 3474" transform="translate(0 -0.001)">
    <g id="组_3473" data-name="组 3473" class="cls-2" transform="translate(0 0.001)">
      <path id="联合_7" data-name="联合 7" class="cls-3" d="M-4499.6-155.7h-15.357a9.05,9.05,0,0,1-9.041-9.04v-33.55h0v-16.712a9.051,9.051,0,0,1,9.04-9.041h3.73v5.672a8.344,8.344,0,0,0,1.69,5.047l.011.015,0,0a8.382,8.382,0,0,0,6.1,3.284l-.01.009q.292.02.588.02h23.593a8.354,8.354,0,0,0,5.812-2.342l.009-.009.018-.017q.294-.286.56-.6v0a8.346,8.346,0,0,0,1.982-5.413v-5.672h3.725a9.058,9.058,0,0,1,9.044,9.046v50.255a9.049,9.049,0,0,1-9.04,9.04Zm-8.514-12.789h33.119a3.245,3.245,0,0,0,3.244-3.243,3.245,3.245,0,0,0-3.244-3.244h-33.119a3.248,3.248,0,0,0-3.244,3.244A3.245,3.245,0,0,0-4508.112-168.484Zm0-12.282h33.119a3.245,3.245,0,0,0,3.244-3.244,3.245,3.245,0,0,0-3.244-3.243h-33.119a3.248,3.248,0,0,0-3.244,3.243A3.245,3.245,0,0,0-4508.112-180.766Zm0-13.72h18.649a3.246,3.246,0,0,0,3.242-3.243,3.243,3.243,0,0,0-3.242-3.243h-18.649a3.244,3.244,0,0,0-3.244,3.243A3.244,3.244,0,0,0-4508.112-194.486Zm9.546-20.364h-2.829a4.472,4.472,0,0,1-2.885-1.051l-.012-.01-.005,0a4.483,4.483,0,0,1-1.589-3.425v-7.868a4.461,4.461,0,0,1,1.32-3.181,4.465,4.465,0,0,1,3.171-1.31h.013l1.032,0h0a1.436,1.436,0,0,0,1.046-.458l1.851-1.995A5.815,5.815,0,0,1-4493.2-236h4.756a5.749,5.749,0,0,1,1.816.294h0a5.8,5.8,0,0,1,2.482,1.622l1.725,1.913a1.434,1.434,0,0,0,1.061.472h.642a4.454,4.454,0,0,1,3.17,1.311,4.448,4.448,0,0,1,1.32,3.18v7.864a4.5,4.5,0,0,1-4.49,4.492Z" transform="translate(4531.054 236)"/>
    </g>
  </g>
</svg>
