<svg xmlns="http://www.w3.org/2000/svg" xmlns:xlink="http://www.w3.org/1999/xlink" width="80" height="80.782" viewBox="0 0 80 80.782">
  <defs>
    <style>
      .cls-1, .cls-2 {
        fill: currentColor;
      }

      .cls-1 {
        stroke: rgba(0,0,0,0);
        stroke-miterlimit: 10;
      }

      .cls-3 {
        clip-path: url(#clip-path);
      }
    </style>
    <clipPath id="clip-path">
      <rect id="矩形_2133" data-name="矩形 2133" class="cls-2" width="80" height="80"/>
    </clipPath>
  </defs>
  <g id="组_3481" data-name="组 3481" transform="translate(0 0.405)">
    <path id="联合_8" data-name="联合 8" class="cls-1" d="M-4743.474-156.125h-6.207c-7.685,0-13.98-6.516-14.32-14.662v-50.458c0-.073.007-.145.011-.217,0,0,0,0,0-.007l.006-.1s0-.007,0-.011c0-.032,0-.064.006-.1,0,0,0-.009,0-.013l.007-.1v0c.008-.108.018-.217.028-.325a.019.019,0,0,1,0-.005c0-.034.006-.068.01-.1a.026.026,0,0,1,0-.006l.01-.1a.046.046,0,0,0,0-.008,15.636,15.636,0,0,1,5.5-10.371h0c.132-.109.266-.216.4-.32l0,0,.056-.043,0,0c.075-.057.151-.114.228-.17l.007,0,.049-.036.013-.009.047-.034.018-.013.045-.032.017-.012.047-.033.015-.01.1-.069.008-.006.041-.027.025-.017.037-.025.03-.02.037-.024.03-.02.035-.023.036-.023.031-.02.059-.038.006,0,.067-.043.023-.014.047-.029.022-.014.048-.03.021-.013.053-.032.016-.01.06-.036.011-.006.218-.127.005,0,.063-.036.015-.008.063-.035.006,0a13.5,13.5,0,0,1,5.863-1.7h0c.117-.006.233-.011.351-.014h.015l.07,0h45.837l.084,0h0c7.728.222,13.946,7.018,13.946,15.348v49.074c0,8.465-6.432,15.354-14.335,15.354Zm.6-17.925c5.456,0,9.9-4.753,9.9-10.606,0-.025,0-.05,0-.075v-.026c0-.017,0-.034,0-.052v-.026c0-.017,0-.034,0-.051s0-.019,0-.028v-.054c0-.007,0-.014,0-.021,0-.024,0-.047,0-.071v-.006l0-.076c0-.007,0-.013,0-.019s0-.037,0-.056v-.025l0-.054c0-.007,0-.015,0-.022s0-.036,0-.054v-.023c0-.023,0-.046,0-.069v-.005l-.006-.074c0-.008,0-.017,0-.026s0-.033,0-.05,0-.018,0-.026l0-.049c0-.009,0-.019,0-.029s0-.032,0-.048,0-.016,0-.025,0-.042-.006-.063c0,0,0-.008,0-.012,0-.025-.005-.05-.008-.075,0-.005,0-.011,0-.016s0-.038-.007-.057l0-.027-.006-.047c0-.01,0-.019,0-.029l-.006-.045c0-.01,0-.019,0-.028l-.007-.052,0-.022-.01-.07,0-.027c0-.015,0-.03-.007-.045s0-.021,0-.032l-.006-.04-.006-.035c0-.012,0-.025-.006-.037l-.006-.035-.006-.034c-.009-.051-.018-.1-.028-.153,0-.006,0-.013,0-.019s-.006-.031-.009-.047l0-.024-.009-.044-.005-.026-.009-.044c0-.008,0-.015,0-.022-.012-.055-.024-.11-.036-.165l0-.012c0-.016-.007-.033-.011-.049l0-.02c0-.017-.008-.033-.012-.05l0-.016-.013-.051,0-.012c-.02-.079-.04-.158-.062-.236l0-.011-.015-.054,0-.01-.016-.056a0,0,0,0,0,0,0c-.023-.082-.047-.163-.072-.244v0l-.018-.056,0-.009-.018-.055,0-.007c-.025-.076-.05-.151-.076-.227l-.006-.019-.015-.042-.009-.026-.014-.038-.011-.03-.013-.037-.01-.027-.022-.06-.015-.04-.01-.025-.017-.042-.01-.025-.018-.044-.008-.02-.024-.059,0-.006q-.129-.317-.277-.624a.039.039,0,0,1-.01.007,9.849,9.849,0,0,0-8.792-5.753c-5.456,0-9.9,4.758-9.9,10.6,0,.014,0,.029,0,.042a11.249,11.249,0,0,0,.851,4.248h0a10.194,10.194,0,0,0,6.324,5.9h0l.171.051h0l.169.047.008,0,.167.043.01,0,.165.039.016,0,.165.035.014,0,.081.016h0l.083.016.015,0,.076.013h.008l.083.014.016,0,.073.011.012,0,.082.012.015,0,.072.01.014,0,.082.01.017,0,.069.008.019,0,.081.009.017,0,.069.007.017,0,.083.007h.013l.073.006h.019l.082.005h.015l.069,0h.022l.082,0h.01l.075,0h.021l.083,0h.189Zm14.285-10.261a4.183,4.183,0,0,0,3.963,4.314h21.338a4.185,4.185,0,0,0,3.965-4.314,4.185,4.185,0,0,0-3.962-4.314h-21.34A4.183,4.183,0,0,0-4728.589-184.31Zm-23.849-25.238,5.787,6.449a3.586,3.586,0,0,0,2.6,1.215h.062a3.574,3.574,0,0,0,2.572-1.12l9.9-10.3a4.089,4.089,0,0,0,1.118-2.781v-.049a4.1,4.1,0,0,0-1.05-2.761,3.559,3.559,0,0,0-2.646-1.2,3.479,3.479,0,0,0-.878.113l-.017,0-.04.011-.039.011-.02.006-.037.011h0a3.624,3.624,0,0,0-1.538.962l-7.232,7.528-3.211-3.58a3.562,3.562,0,0,0-2.66-1.215,3.554,3.554,0,0,0-2.559,1.1,4.154,4.154,0,0,0-.167,5.515c.021.025.042.051.063.075Zm27.812,3.706h21.338a4.185,4.185,0,0,0,3.965-4.314,4.185,4.185,0,0,0-3.965-4.314h-21.338a4.183,4.183,0,0,0-3.963,4.314A4.184,4.184,0,0,0-4724.625-205.842Zm-21.708,21.285a3.513,3.513,0,0,1,3.383-3.623,3.409,3.409,0,0,1,3.189,2.461,56.4,56.4,0,0,1-6.045,3.083A3.738,3.738,0,0,1-4746.333-184.556Z" transform="translate(4767.02 236.001)"/>
    <g id="组_3478" data-name="组 3478">
      <g id="组_3477" data-name="组 3477" class="cls-3">
        <path id="路径_1276" data-name="路径 1276" class="cls-2" d="M154.714,374.164a3.623,3.623,0,1,0,3.623,3.623,3.628,3.628,0,0,0-3.623-3.623" transform="translate(-131.78 -326.341)"/>
      </g>
    </g>
  </g>
</svg>
