<svg id="组_3554" data-name="组 3554" xmlns="http://www.w3.org/2000/svg" xmlns:xlink="http://www.w3.org/1999/xlink" width="30" height="30" viewBox="0 0 30 30">
  <defs>
    <style>
      .cls-1 {
        fill: none;
      }

      .cls-2 {
        clip-path: url(#clip-path);
      }

      .cls-3 {
        fill: currentColor;
      }
    </style>
    <clipPath id="clip-path">
      <rect id="矩形_2187" data-name="矩形 2187" class="cls-1" width="30" height="30"/>
    </clipPath>
  </defs>
  <g id="组_3553" data-name="组 3553" class="cls-2">
    <path id="路径_1366" data-name="路径 1366" class="cls-3" d="M18.25,3A1.25,1.25,0,0,1,19.5,4.25v2.5h6.25A1.25,1.25,0,0,1,27,8V24.25a1.25,1.25,0,0,1-1.25,1.25H3.25A1.25,1.25,0,0,1,2,24.25V8A1.25,1.25,0,0,1,3.25,6.75H9.5V4.25A1.25,1.25,0,0,1,10.75,3ZM9.5,9.25H7V23H9.5Zm12.5,0H19.5V23H22ZM17,5.5H12V6.75h5Z" transform="translate(0.5 0.75)"/>
  </g>
</svg>
