<svg xmlns="http://www.w3.org/2000/svg" width="30" height="30" viewBox="0 0 30 30">
  <defs>
    <style>
      .cls-1 {
        fill: currentColor;
      }
    </style>
  </defs>
  <path id="形状" class="cls-1" d="M15,30A15,15,0,1,1,30,15,15.017,15.017,0,0,1,15,30Zm0-13.28,0,0,3.325,3.965,2.21.012a.268.268,0,0,0,.268-.268.286.286,0,0,0-.064-.175l-4.353-5.19L20.737,9.88a.275.275,0,0,0,.064-.174.267.267,0,0,0-.266-.268l-2.21.01L15,13.413,11.675,9.446,9.461,9.434a.268.268,0,0,0-.268.268.294.294,0,0,0,.064.175l4.357,5.186-4.357,5.19a.286.286,0,0,0-.064.174.268.268,0,0,0,.268.268l2.214-.01L15,16.722Z"/>
</svg>
