<svg xmlns="http://www.w3.org/2000/svg" xmlns:xlink="http://www.w3.org/1999/xlink" width="80" height="80" viewBox="0 0 80 80">
  <defs>
    <style>
      .cls-1 {
        fill: currentColor;
      }

      .cls-2 {
        clip-path: url(#clip-path);
      }

      .cls-3 {
        clip-path: url(#clip-path-2);
      }
    </style>
    <clipPath id="clip-path">
      <rect id="矩形_2157" data-name="矩形 2157" class="cls-1" width="75.991" height="80"/>
    </clipPath>
    <clipPath id="clip-path-2">
      <rect id="矩形_2158" data-name="矩形 2158" class="cls-1" width="80" height="80"/>
    </clipPath>
  </defs>
  <g id="组_3521" data-name="组 3521" transform="translate(0 0)">
    <g id="组_3518" data-name="组 3518" transform="translate(2.005 0)">
      <g id="组_3517" data-name="组 3517" class="cls-2" transform="translate(0 0)">
        <path id="路径_1332" data-name="路径 1332" class="cls-1" d="M79.072.014h-50A13,13,0,0,0,16.079,13V66.321a13,13,0,0,0,12.99,12.984l31.306.015L53.19,66.881a3.071,3.071,0,0,1,0-3.077l9.932-17.2a3.079,3.079,0,0,1,2.666-1.539h19.87a3.078,3.078,0,0,1,2.666,1.539l3.741,6.482V13A13.007,13.007,0,0,0,79.072.014M43.638,61.248H33.891a4.687,4.687,0,1,1,0-9.373h9.747a4.687,4.687,0,1,1,0,9.373M52.9,42.466H33.891a4.687,4.687,0,1,1,0-9.373H52.9a4.687,4.687,0,1,1,0,9.373m21.81-18.777H33.891a4.687,4.687,0,1,1,0-9.373H74.713a4.687,4.687,0,1,1,0,9.373" transform="translate(-16.079 -0.012)"/>
        <path id="路径_1333" data-name="路径 1333" class="cls-1" d="M386.805,406.017a3.378,3.378,0,0,0-2.928-1.687H370.97a3.385,3.385,0,0,0-2.928,1.687l-6.454,11.174a3.378,3.378,0,0,0,0,3.375l6.454,11.174a3.377,3.377,0,0,0,2.928,1.687h12.908a3.383,3.383,0,0,0,2.928-1.687l6.454-11.174a3.378,3.378,0,0,0,0-3.375Zm-9.382,18.911a6.05,6.05,0,1,1,6.052-6.05,6.051,6.051,0,0,1-6.052,6.05" transform="translate(-317.781 -353.547)"/>
      </g>
    </g>
  </g>
</svg>
