<svg xmlns="http://www.w3.org/2000/svg" xmlns:xlink="http://www.w3.org/1999/xlink" width="150" height="150" viewBox="0 0 150 150">
  <defs>
    <style>
      .cls-1, .cls-4 {
        fill: none;
      }

      .cls-2 {
        clip-path: url(#clip-path);
      }

      .cls-3 {
        opacity: 0.01;
      }

      .cls-4 {
        stroke: currentColor;
        stroke-linecap: round;
        stroke-linejoin: round;
        stroke-width: 8px;
      }
    </style>
    <clipPath id="clip-path">
      <rect id="矩形_3190" data-name="矩形 3190" class="cls-1" width="150" height="150"/>
    </clipPath>
  </defs>
  <g id="组_5511" data-name="组 5511" transform="translate(-166 -121)">
    <g id="组_5506" data-name="组 5506" class="cls-2" transform="translate(166 121)">
      <path id="路径_1764" data-name="路径 1764" class="cls-4" d="M2,17V48.25H33.25" transform="translate(10.5 89.25)"/>
      <path id="路径_1765" data-name="路径 1765" class="cls-4" d="M17,48.25H48.25V17" transform="translate(89.25 89.25)"/>
      <path id="路径_1766" data-name="路径 1766" class="cls-4" d="M17,2H48.25V33.25" transform="translate(89.25 10.5)"/>
      <path id="路径_1767" data-name="路径 1767" class="cls-4" d="M33.25,2H2V33.25" transform="translate(10.5 10.5)"/>
      <path id="路径_1768" data-name="路径 1768" class="cls-4" d="M8,17a37.431,37.431,0,0,0,25,9.375A37.431,37.431,0,0,0,58,17" transform="translate(42 89.25)"/>
      <path id="路径_1769" data-name="路径 1769" class="cls-4" d="M25.125,7V35.125c0,6.25-6.25,12.5-12.5,12.5H9.5" transform="translate(49.875 36.75)"/>
      <line id="直线_135" data-name="直线 135" class="cls-4" y2="6.25" transform="translate(106.25 43.75)"/>
      <line id="直线_136" data-name="直线 136" class="cls-4" y2="6.25" transform="translate(43.75 43.75)"/>
    </g>
  </g>
</svg>
