<svg xmlns="http://www.w3.org/2000/svg" xmlns:xlink="http://www.w3.org/1999/xlink" width="40" height="40" viewBox="0 0 40 40">
  <defs>
    <style>
      .cls-1, .cls-4 {
        fill: none;
      }

      .cls-2 {
        clip-path: url(#clip-path);
      }

      .cls-3 {
        opacity: 0.01;
      }

      .cls-4 {
        stroke: currentColor;
        stroke-linecap: round;
        stroke-linejoin: round;
        stroke-width: 2px;
      }
    </style>
    <clipPath id="clip-path">
      <rect id="矩形_3190" data-name="矩形 3190" class="cls-1" width="40" height="40"/>
    </clipPath>
  </defs>
  <g id="组_5505" data-name="组 5505" transform="translate(-166 -121)">
    <g id="组_5506" data-name="组 5506" class="cls-2" transform="translate(166 121)">
      <path id="路径_1764" data-name="路径 1764" class="cls-4" d="M2,17v8.333h8.333" transform="translate(1.333 11.333)"/>
      <path id="路径_1765" data-name="路径 1765" class="cls-4" d="M17,25.333h8.333V17" transform="translate(11.333 11.333)"/>
      <path id="路径_1766" data-name="路径 1766" class="cls-4" d="M17,2h8.333v8.333" transform="translate(11.333 1.333)"/>
      <path id="路径_1767" data-name="路径 1767" class="cls-4" d="M10.333,2H2v8.333" transform="translate(1.333 1.333)"/>
      <path id="路径_1768" data-name="路径 1768" class="cls-4" d="M8,17a10.139,10.139,0,0,0,13.333,0" transform="translate(5.333 11.333)"/>
      <path id="路径_1769" data-name="路径 1769" class="cls-4" d="M13.667,7v7.5a3.585,3.585,0,0,1-3.333,3.333H9.5" transform="translate(6.333 4.667)"/>
      <line id="直线_135" data-name="直线 135" class="cls-4" y2="1.667" transform="translate(28.333 11.667)"/>
      <line id="直线_136" data-name="直线 136" class="cls-4" y2="1.667" transform="translate(11.667 11.667)"/>
    </g>
  </g>
</svg>
