<svg id="组_5504" data-name="组 5504" xmlns="http://www.w3.org/2000/svg" xmlns:xlink="http://www.w3.org/1999/xlink" width="40" height="40" viewBox="0 0 40 40">
  <defs>
    <style>
      .cls-1, .cls-4 {
        fill: none;
      }

      .cls-2 {
        clip-path: url(#clip-path);
      }

      .cls-3 {
        opacity: 0.01;
      }

      .cls-4 {
        stroke: currentColor;
        stroke-linecap: round;
        stroke-linejoin: round;
        stroke-width: 2px;
      }
    </style>
    <clipPath id="clip-path">
      <rect id="矩形_3189" data-name="矩形 3189" class="cls-1" width="40" height="40"/>
    </clipPath>
  </defs>
  <g id="组_5503" data-name="组 5503" class="cls-2">
    <path id="路径_1759" data-name="路径 1759" class="cls-4" d="M33.348,8.5a21.949,21.949,0,0,0-30.6-.068" transform="translate(1.804 1.478)"/>
    <path id="路径_1760" data-name="路径 1760" class="cls-4" d="M3.333,20.45V20.4A14.361,14.361,0,0,1,17.694,6.041" transform="translate(2.19 3.969)"/>
    <path id="路径_1761" data-name="路径 1761" class="cls-4" d="M15.585,6.815a14.363,14.363,0,0,1,8.421,13.078v.01" transform="translate(10.239 4.477)"/>
    <path id="路径_1762" data-name="路径 1762" class="cls-4" d="M7.125,24.194V17.911a8.078,8.078,0,0,1,16.155,0v6.283" transform="translate(4.681 6.46)"/>
    <path id="路径_1763" data-name="路径 1763" class="cls-4" d="M8.763,27.088a3.789,3.789,0,0,0,2.671-3.566v-7.2a2.693,2.693,0,1,1,5.385,0v7.2" transform="translate(5.757 8.951)"/>
  </g>
</svg>
