<svg xmlns="http://www.w3.org/2000/svg" xmlns:xlink="http://www.w3.org/1999/xlink" width="150" height="150" viewBox="0 0 150 150">
  <defs>
    <style>
      .cls-1 {
        fill: #fff;
        stroke: #707070;
      }

      .cls-2 {
        fill: currentColor;
      }

      .cls-3 {
        clip-path: url(#clip-path);
      }

      .cls-4 {
        clip-path: url(#clip-path-2);
      }
    </style>
    <clipPath id="clip-path">
      <rect id="矩形_3157" data-name="矩形 3157" class="cls-1" width="150" height="150" transform="translate(3405 -16965)"/>
    </clipPath>
    <clipPath id="clip-path-2">
      <rect id="矩形_3156" data-name="矩形 3156" class="cls-2" width="139.359" height="140"/>
    </clipPath>
  </defs>
  <g id="蒙版组_12" data-name="蒙版组 12" class="cls-3" transform="translate(-3405 16965)">
    <g id="组_5458" data-name="组 5458" transform="translate(3410 -16960)">
      <g id="组_5457" data-name="组 5457" class="cls-4">
        <path id="路径_1749" data-name="路径 1749" class="cls-2" d="M66.783,124.864a2.686,2.686,0,0,0-3.633,1.677l-3.772,9.221a2.646,2.646,0,0,0,2.1,3.773,2.874,2.874,0,0,0,3.074-1.816c1.4-2.934,2.655-6.008,3.772-9.081a2.89,2.89,0,0,0-1.537-3.772m63.429-34.509a2.757,2.757,0,0,0-3.074-2.655,2.7,2.7,0,0,0-2.515,2.934c.14,4.61-.139,9.082-.279,13.692,0,2.1.978,3.213,2.655,3.353,1.676,0,2.934-1.117,2.934-3.213,0-3.074.419-6.287.279-9.221a28.425,28.425,0,0,0,0-4.89M36.6,107.959a2.854,2.854,0,0,0-3.493,1.956c-.279.7-.419,1.536-.7,2.235a91.647,91.647,0,0,1-4.47,10.758c-.978,2.1.139,4.191,2.375,4.191a2.676,2.676,0,0,0,2.655-1.817,72.954,72.954,0,0,0,5.449-13.832,2.716,2.716,0,0,0-1.816-3.492m46.245-6.427a2.8,2.8,0,0,0-3.074,2.515,144.826,144.826,0,0,1-4.331,20.538c-1.117,3.911-2.515,7.823-3.911,11.736a2.67,2.67,0,0,0,1.117,3.493A2.717,2.717,0,0,0,76,139.534a5.033,5.033,0,0,0,1.117-2.1,115.156,115.156,0,0,0,4.331-13.413,144.767,144.767,0,0,0,3.912-19.42,2.922,2.922,0,0,0-2.515-3.073M8.1,52.633a2.969,2.969,0,0,0-1.956-3.912c-1.537-.419-2.935.559-3.493,2.236A71.589,71.589,0,0,0,0,70.8a59.645,59.645,0,0,0,.279,6.845,68.444,68.444,0,0,0,3.214,14.81,2.4,2.4,0,0,0,2.375,1.816c2.376.139,3.493-1.677,2.795-4.192A63.363,63.363,0,0,1,8.1,52.633m66.643,39.4a67.989,67.989,0,0,0-.419-8.942,102.7,102.7,0,0,0-1.956-13.133,2.759,2.759,0,0,0-3.214-2.235,2.721,2.721,0,0,0-2.1,3.493,104.565,104.565,0,0,1,2.1,16.346A95.893,95.893,0,0,1,66.5,115.783c-.419,1.817.28,3.353,1.817,3.772,1.676.419,3.074-.558,3.633-2.515a98.1,98.1,0,0,0,2.794-25.008M104.086,58.92a2.772,2.772,0,0,0-3.492-1.816A2.662,2.662,0,0,0,98.777,60.6c2.235,8.383,3.074,17.045,3.632,25.847a139.637,139.637,0,0,1-4.47,42.333c-.419,1.816.279,3.493,1.816,3.772a2.8,2.8,0,0,0,3.632-2.375,142.658,142.658,0,0,0,4.75-37.163,142.936,142.936,0,0,0-1.817-24.171,54.164,54.164,0,0,0-2.235-9.92m-91.93-16.9A60.818,60.818,0,0,1,22.493,27.065C34.928,13.793,50.157,6.807,68.459,6.248c2.1,0,3.353-1.118,3.353-2.935S70.555.52,68.319.52A69.562,69.562,0,0,0,7.265,39.081a5.182,5.182,0,0,0-.559,1.956,2.444,2.444,0,0,0,1.4,2.515,2.8,2.8,0,0,0,4.052-1.537m38.56,33.531c-1.117-6.706-.279-12.714,4.331-18.022a2.513,2.513,0,0,0,.559-1.257c.14-1.4-.14-2.515-1.537-3.074a2.656,2.656,0,0,0-3.492.838,24.546,24.546,0,0,0-5.728,20.4,129.1,129.1,0,0,1,1.676,17.6,76.331,76.331,0,0,1-1.676,17.185,78.672,78.672,0,0,1-6.986,19.14,3.655,3.655,0,0,0-.7,2.375,2.682,2.682,0,0,0,2.1,2.376,2.925,2.925,0,0,0,3.353-1.677,80.886,80.886,0,0,0,8.662-26.685,97.391,97.391,0,0,0-.559-29.2M18.162,83.369c-.978-6.287-1.816-12.434-.978-18.861A53.018,53.018,0,0,1,39.4,26.926a2.957,2.957,0,0,0,1.4-3.493c-.7-1.956-2.655-2.375-4.611-1.117a54.428,54.428,0,0,0-11.736,10.9A57.9,57.9,0,0,0,11.317,68.839c-.28,6.846,1.537,13.552,1.956,20.259.279,4.47.419,8.941-.978,13.412-.419,1.4-.838,2.934-1.257,4.052a2.8,2.8,0,0,0,2.795,3.074c1.676,0,2.375-.978,2.934-2.376,2.934-7.684,2.515-15.788,1.4-23.891M138.455,58.78Q130.072,16.866,89.416,3.454A40.07,40.07,0,0,0,80.195,1.5a2.424,2.424,0,0,0-2.934,2.235A2.576,2.576,0,0,0,79.5,6.947c.559.14,1.117.14,1.537.279a63.112,63.112,0,0,1,36.046,20.119A62,62,0,0,1,129.514,47.6,66.51,66.51,0,0,1,133.7,68.42c.14,2.1,1.677,3.353,3.633,2.795,1.4-.419,2.1-1.537,1.956-3.773a37.148,37.148,0,0,0-.838-8.662M101.571,35.309a41.128,41.128,0,0,0-9.081-6.427,2.677,2.677,0,0,0-3.773.977,2.747,2.747,0,0,0,1.118,3.912,3.493,3.493,0,0,0,.977.559c9.361,5.728,15.927,13.692,19,24.31,2.794,10.2,3.493,20.678,3.772,31.156a150.259,150.259,0,0,1-2.1,29.619c-.279,2.1.559,3.353,2.235,3.632,1.817.28,3.074-.7,3.353-2.794a146.022,146.022,0,0,0,2.1-25.009A195.633,195.633,0,0,0,116.8,64.229a48.126,48.126,0,0,0-15.229-28.92M78.379,46.765a25.08,25.08,0,0,0-16.906-.14c-2.375.7-3.074,3.214-1.537,4.75,1.117,1.117,2.235.978,3.493.559A19.4,19.4,0,0,1,88.857,67.023a147.427,147.427,0,0,1,2.1,15.508,123.982,123.982,0,0,1-.14,22.773,134.5,134.5,0,0,1-6.287,28.641c-.14.558-.419.977-.279,1.536a2.693,2.693,0,0,0,2.515,2.376,2.745,2.745,0,0,0,3.074-2.1A129.262,129.262,0,0,0,97.1,93.708a150.05,150.05,0,0,0-2.375-26.545c-1.816-9.92-7.125-16.905-16.346-20.4M39.678,63.81C42.892,48.022,59.518,36.985,75.444,40.2A31.491,31.491,0,0,1,93.468,50.816,8,8,0,0,0,95,52.354a2.847,2.847,0,0,0,3.353-.838c.977-1.257.838-2.515-.28-4.052C91.651,39.639,83.409,35.029,73.21,34.191c-12.994-1.117-23.751,3.493-31.994,13.692a34.635,34.635,0,0,0-7.4,27.384,96.864,96.864,0,0,1,1.537,14.111c0,3.353,0,6.706-.279,9.92a2.812,2.812,0,0,0,5.589.558,90.365,90.365,0,0,0-.14-18.441c-.419-3.773-1.677-7.405-1.4-10.9a35.242,35.242,0,0,1,.559-6.706M127,82.112a2.854,2.854,0,0,0,2.655-3.074V78.06c-.559-5.309-1.118-10.618-1.956-15.927C125.881,50.4,121.27,40.058,113.307,31.4c-11.6-12.994-26.266-19.42-43.73-19.56a57.524,57.524,0,0,0-22.633,4.61,2.9,2.9,0,0,0-1.816,3.772,2.818,2.818,0,0,0,3.912,1.4A53.535,53.535,0,0,1,74.606,17.7a51.534,51.534,0,0,1,31.3,14.25,53.672,53.672,0,0,1,16.347,32.274q1.048,7.544,1.676,15.089A3.253,3.253,0,0,0,127,82.112M61.753,73.031a10.222,10.222,0,0,1,0-5.029,8.135,8.135,0,0,1,8.662-5.868c3.772.139,6.846,2.934,7.684,7.125A135.516,135.516,0,0,1,80.475,93.01a2.8,2.8,0,0,0,2.794,3.073c1.676,0,2.655-1.257,2.794-2.934V90.635H86.2c-.279-3.632-.419-7.265-.838-10.9s-.978-7.265-1.537-10.9A14.26,14.26,0,0,0,68.04,56.545c-7.265.838-13.133,8.1-12.015,15.228.559,4.331,1.257,8.662,1.676,12.994a90.572,90.572,0,0,1-4.191,35.626A99.755,99.755,0,0,1,48.2,132.967a2.747,2.747,0,0,0,.14,3.074A2.542,2.542,0,0,0,51,137.159a3.205,3.205,0,0,0,2.515-2.1c9.64-19.7,11.876-40.377,8.243-62.032M28.92,80.715c-.7-4.75-1.4-9.64-.977-14.39A41.08,41.08,0,0,1,42.752,38.382,40.477,40.477,0,0,1,67.9,28.742a39.447,39.447,0,0,1,11.456,1.117,3.434,3.434,0,0,0,1.676.14,2.558,2.558,0,0,0,2.236-2.515,2.722,2.722,0,0,0-2.1-2.934,40.934,40.934,0,0,0-11.736-1.4,30.889,30.889,0,0,0-8.662.838C46.664,26.646,35.906,34.331,28.5,46.765a45.482,45.482,0,0,0-5.868,29.2c.419,3.912,1.257,7.684,1.536,11.6.559,9.64-.7,19-5.029,27.664a2.717,2.717,0,0,0-.419,1.816,2.554,2.554,0,0,0,2.376,2.376A3.018,3.018,0,0,0,24.17,117.6c5.869-11.6,6.707-24.17,4.75-36.884" transform="translate(0 -0.431)"/>
      </g>
    </g>
  </g>
</svg>
