<svg id="组_3483" data-name="组 3483" xmlns="http://www.w3.org/2000/svg" xmlns:xlink="http://www.w3.org/1999/xlink" width="80" height="80" viewBox="0 0 80 80">
  <defs>
    <style>
      .cls-1, .cls-3 {
        fill: currentColor;
      }

      .cls-2 {
        clip-path: url(#clip-path);
      }

      .cls-3 {
        stroke: rgba(0,0,0,0);
        stroke-miterlimit: 10;
      }
    </style>
    <clipPath id="clip-path">
      <rect id="矩形_2135" data-name="矩形 2135" class="cls-1" width="80" height="80"/>
    </clipPath>
  </defs>
  <g id="组_3482" data-name="组 3482" class="cls-2">
    <path id="减去_16" data-name="减去 16" class="cls-3" d="M-4933.473,18119.611h-61.054a9.483,9.483,0,0,1-9.472-9.471v-56.666a9.413,9.413,0,0,1,2.773-6.7,9.408,9.408,0,0,1,6.7-2.773h15.043l.015,0a2.723,2.723,0,0,1,1.876.744l7.835,7.334a2.812,2.812,0,0,0,.7.479,2.75,2.75,0,0,0,.6.2l0,0a2.591,2.591,0,0,0,.6.068h34.392a9.409,9.409,0,0,1,6.7,2.773,9.413,9.413,0,0,1,2.773,6.7v47.84A9.483,9.483,0,0,1-4933.473,18119.611Zm-43.81-38.7a5.16,5.16,0,0,0-5.157,5.152,5.162,5.162,0,0,0,5.157,5.158h14.684l-2.155,2.287a5.111,5.111,0,0,0-1.4,3.688,5.123,5.123,0,0,0,1.617,3.6,5.136,5.136,0,0,0,3.533,1.4,5.168,5.168,0,0,0,3.751-1.619l10.291-10.937a5.15,5.15,0,0,0-.041-7.107l-10.736-11.127a5.162,5.162,0,0,0-3.62-1.578h-.088a5.125,5.125,0,0,0-3.582,1.451,5.158,5.158,0,0,0-1.573,3.705,5.113,5.113,0,0,0,1.446,3.574l2.269,2.355Z" transform="translate(5004 -18041.805)"/>
  </g>
</svg>
