<svg xmlns="http://www.w3.org/2000/svg" xmlns:xlink="http://www.w3.org/1999/xlink" width="80" height="80" viewBox="0 0 80 80">
  <defs>
    <style>
      .cls-1 {
        fill: currentColor;
      }

      .cls-2 {
        clip-path: url(#clip-path);
      }

      .cls-3 {
        clip-path: url(#clip-path-2);
      }
    </style>
    <clipPath id="clip-path">
      <rect id="矩形_2149" data-name="矩形 2149" class="cls-1" width="80" height="63.496"/>
    </clipPath>
    <clipPath id="clip-path-2">
      <rect id="矩形_2150" data-name="矩形 2150" class="cls-1" width="80" height="80"/>
    </clipPath>
  </defs>
  <g id="组_3506" data-name="组 3506" transform="translate(-0.122)">
    <g id="组_3499" data-name="组 3499" transform="translate(0.122 8.252)">
      <g id="组_3498" data-name="组 3498" class="cls-2" transform="translate(0)">
        <path id="路径_1312" data-name="路径 1312" class="cls-1" d="M142.433,108.2a16.736,16.736,0,0,1-5.406-5.041c-4.886-7.372-3.161-18.973,5.652-23.459a13.684,13.684,0,0,1,16.614,3.615c4.426,5.414,5.269,11.373,2.439,17.827a14.607,14.607,0,0,1-5.019,6.393,5.7,5.7,0,0,0-.5.417,1.618,1.618,0,0,0-.168.279c.525.129,1.02.228,1.505.369,6.052,1.726,11.123,4.847,14.619,10.227a25.021,25.021,0,0,1,3.733,9.785,74.3,74.3,0,0,1,.749,7.634c.12,2.194-1,3.469-3.329,4.16a33.693,33.693,0,0,1-8.813,1.031c-11.406.279-22.817.373-34.218-.176A27.357,27.357,0,0,1,125,140.4c-2.533-.636-3.411-2-3.333-4.594a38.969,38.969,0,0,1,1.385-9.956A23.933,23.933,0,0,1,139.1,109.135c.525-.18,1.054-.361,1.587-.511.5-.146,1.006-.244,1.746-.42" transform="translate(-108.901 -78.267)"/>
        <path id="路径_1313" data-name="路径 1313" class="cls-1" d="M23.614,115.14c-4.774,8.192-4.516,16.276.551,24.357-10.71,5.242-15.449,14.417-16.778,25.868-1.983.047-3.948.124-5.729-.773a2.668,2.668,0,0,1-1.385-1.679,28.344,28.344,0,0,1-.155-6.243A21.968,21.968,0,0,1,7.9,142.18a19.983,19.983,0,0,1,7.286-3.924c.292-.086.581-.18,1.036-.322a12.582,12.582,0,0,1-5.144-17.114c2.572-4.779,7.781-7.114,12.537-5.68" transform="translate(-0.013 -110.879)"/>
        <path id="路径_1314" data-name="路径 1314" class="cls-1" d="M531.923,137.147c5.212-8.145,5.187-16.3.533-24.606a9.2,9.2,0,0,1,7,.563,11.773,11.773,0,0,1,6.842,10.18,12.226,12.226,0,0,1-5.324,11.532,14.687,14.687,0,0,1-1.29.73,4.626,4.626,0,0,0,.576.292c8.817,2.958,13.759,9.253,15.484,18.183a28.737,28.737,0,0,1,.228,6.058,2.554,2.554,0,0,1-2.258,2.481c-1.617.309-3.273.434-5.019.649-1.2-11.665-6.017-20.785-16.773-26.061" transform="translate(-476.082 -108.533)"/>
      </g>
    </g>
    <g id="组_3505" data-name="组 3505" transform="translate(0.122)">
      <g id="组_3504" data-name="组 3504" class="cls-3" transform="translate(0)">
        <path id="路径_1319" data-name="路径 1319" class="cls-1" d="M537,113.037c.43.766.8,1.531,1.157,2.3q.362-1.323.658-2.68a11.114,11.114,0,0,0-1.815.383" transform="translate(-480.627 -100.825)"/>
      </g>
    </g>
  </g>
</svg>
