<svg id="组_5441" data-name="组 5441" xmlns="http://www.w3.org/2000/svg" xmlns:xlink="http://www.w3.org/1999/xlink" width="24" height="24" viewBox="0 0 24 24">
  <defs>
    <style>
      .cls-1 {
        fill: currentColor;
      }

      .cls-2 {
        clip-path: url(#clip-path);
      }
    </style>
    <clipPath id="clip-path">
      <rect id="矩形_3142" data-name="矩形 3142" class="cls-1" width="24" height="24"/>
    </clipPath>
  </defs>
  <g id="组_5440" data-name="组 5440" class="cls-2">
    <path id="路径_1741" data-name="路径 1741" class="cls-1" d="M9,3h6l2,2h4a1,1,0,0,1,1,1V20a1,1,0,0,1-1,1H3a1,1,0,0,1-1-1V6A1,1,0,0,1,3,5H7Zm3,16a6,6,0,1,0-6-6,6,6,0,0,0,6,6m0-2a4,4,0,1,1,4-4,4,4,0,0,1-4,4"/>
  </g>
</svg>
