<svg id="组_5283" data-name="组 5283" xmlns="http://www.w3.org/2000/svg" xmlns:xlink="http://www.w3.org/1999/xlink" width="30" height="30" viewBox="0 0 30 30">
  <defs>
    <style>
      .cls-1, .cls-4 {
        fill: none;
        stroke: currentColor;
      }

      .cls-2 {
        clip-path: url(#clip-path);
      }

      .cls-3 {
        opacity: 0.01;
      }

      .cls-4 {
        stroke-linecap: round;
        stroke-linejoin: round;
        stroke-width: 2px;
      }
    </style>
    <clipPath id="clip-path">
      <rect id="矩形_3005" data-name="矩形 3005" class="cls-1" width="30" height="30"/>
    </clipPath>
  </defs>
  <g id="组_5282" data-name="组 5282" class="cls-2">
    <path id="路径_1697" data-name="路径 1697" class="cls-4" d="M15,5h6.25c1.179,0,1.767,0,2.134.366s.366.955.366,2.134V20c0,1.179,0,1.767-.366,2.134s-.955.366-2.134.366H15" transform="translate(3.75 1.25)"/>
    <path id="路径_1698" data-name="路径 1698" class="cls-4" d="M10.75,5H4.5c-1.179,0-1.767,0-2.134.366S2,6.321,2,7.5V20c0,1.179,0,1.767.366,2.134s.955.366,2.134.366h6.25" transform="translate(0.5 1.25)"/>
    <line id="直线_111" data-name="直线 111" class="cls-4" y2="22.5" transform="translate(15 3.75)"/>
  </g>
</svg>
