<svg xmlns="http://www.w3.org/2000/svg" xmlns:xlink="http://www.w3.org/1999/xlink" width="80" height="80" viewBox="0 0 80 80">
  <defs>
    <style>
      .cls-1, .cls-2, .cls-5 {
        fill: currentColor;
      }

      .cls-1 {
        stroke: #707070;
      }

      .cls-3 {
        clip-path: url(#clip-path);
      }

      .cls-4 {
        clip-path: url(#clip-path-2);
      }

      .cls-5 {
        stroke: rgba(0,0,0,0);
        stroke-miterlimit: 10;
      }
    </style>
    <clipPath id="clip-path">
      <rect id="矩形_2138" data-name="矩形 2138" class="cls-1" width="80" height="80" transform="translate(5282 2910)"/>
    </clipPath>
    <clipPath id="clip-path-2">
      <rect id="矩形_2137" data-name="矩形 2137" class="cls-2" width="80" height="78.424" transform="translate(0 0)"/>
    </clipPath>
  </defs>
  <g id="蒙版组_2" data-name="蒙版组 2" class="cls-3" transform="translate(-5282 -2910)">
    <g id="组_3486" data-name="组 3486" transform="translate(5282 2911.333)">
      <g id="组_3485" data-name="组 3485" class="cls-4" transform="translate(0)">
        <path id="联合_13" data-name="联合 13" class="cls-5" d="M-4236.774-9818.023a6.459,6.459,0,0,1-6.28-6.029c0-.023,0-.047-.006-.072s0-.043,0-.064c0-.043-.006-.088-.008-.131a.256.256,0,0,1,0-.027q0-.076-.006-.152a.145.145,0,0,0,0-.02c0-.051,0-.1,0-.154v-6.309a6.519,6.519,0,0,1,5.906-6.631l6.416-9.66a10.69,10.69,0,0,1-2.111-3.111,10.558,10.558,0,0,1-.917-4.316,10.675,10.675,0,0,1,10.665-10.666,10.677,10.677,0,0,1,10.665,10.666,10.63,10.63,0,0,1-3.452,7.838l5.559,9.229a6.475,6.475,0,0,1,6.288,6.652v6.3a6.493,6.493,0,0,1-6.309,6.656Zm-35.749-1.082A11.486,11.486,0,0,1-4284-9830.58v-54.273a11.489,11.489,0,0,1,11.475-11.479h43.936a11.493,11.493,0,0,1,11.475,11.479v14.465a16.638,16.638,0,0,0-6.006-1.117,16.83,16.83,0,0,0-16.814,16.809,16.8,16.8,0,0,0,1.759,7.486l-2.781,4.182a12.813,12.813,0,0,0-8.271,12.041v6.3a12.917,12.917,0,0,0,1.268,5.582Zm5.568-16.164h11.32a3.985,3.985,0,0,0,3.983-3.979,3.982,3.982,0,0,0-3.983-3.979h-11.315a3.982,3.982,0,0,0-3.979,3.979,4.14,4.14,0,0,0,.159,1.107l-.006,0A3.983,3.983,0,0,0-4266.955-9835.27Zm0-20.059h18.593a3.981,3.981,0,0,0,3.979-3.979,3.981,3.981,0,0,0-3.979-3.979h-18.593a3.981,3.981,0,0,0-3.979,3.979A3.981,3.981,0,0,0-4266.955-9855.328Zm32.009-17.986a4.062,4.062,0,0,0,.81-.084v0a3.985,3.985,0,0,0,3.17-3.9,3.962,3.962,0,0,0-1.007-2.643c-.015-.018-.03-.033-.045-.051l0,0a4.042,4.042,0,0,0-1.149-.865.047.047,0,0,1-.016-.008l-.072-.033-.025-.012-.062-.029a.368.368,0,0,1-.036-.016l-.049-.02a.509.509,0,0,0-.049-.02.227.227,0,0,0-.032-.014l-.064-.023-.007,0a4.4,4.4,0,0,0-.457-.135l-.008,0-.082-.018a.077.077,0,0,0-.02,0l-.077-.016-.024,0-.073-.012-.031-.006-.068-.01a.24.24,0,0,1-.036,0l-.064-.008-.044,0-.06-.006-.05,0a.515.515,0,0,0-.054,0l-.064,0h-.041c-.036,0-.071,0-.107,0h-32.009a3.981,3.981,0,0,0-3.979,3.979,3.983,3.983,0,0,0,2.3,3.607,3.965,3.965,0,0,0,1.676.367h2.319s0,0,0,0Z" transform="translate(4284 9896.332)"/>
      </g>
    </g>
  </g>
</svg>
