<svg xmlns="http://www.w3.org/2000/svg" xmlns:xlink="http://www.w3.org/1999/xlink" width="80" height="80" viewBox="0 0 80 80">
  <defs>
    <style>
      .cls-1, .cls-4 {
        fill: currentColor;
      }

      .cls-2 {
        clip-path: url(#clip-path);
      }

      .cls-3 {
        clip-path: url(#clip-path-2);
      }

      .cls-4 {
        stroke: rgba(0,0,0,0);
        stroke-miterlimit: 10;
      }
    </style>
    <clipPath id="clip-path">
      <rect id="矩形_2130" data-name="矩形 2130" class="cls-1" width="80" height="80" transform="translate(250 306)"/>
    </clipPath>
    <clipPath id="clip-path-2">
      <rect id="矩形_2129" data-name="矩形 2129" class="cls-1" width="79.92" height="79.68" transform="translate(0)"/>
    </clipPath>
  </defs>
  <g id="蒙版组_1" data-name="蒙版组 1" class="cls-2" transform="translate(-250 -306)">
    <g id="组_3472" data-name="组 3472" transform="translate(250 306)">
      <g id="组_3471" data-name="组 3471" class="cls-3" transform="translate(0)">
        <path id="联合_6" data-name="联合 6" class="cls-4" d="M-4261.967-156.514h-8.409a13.623,13.623,0,0,1-12.1-7.359l-.028-.054,0-.01a13.537,13.537,0,0,1-1.491-6.2v-49.015a13.624,13.624,0,0,1,13.624-13.624h44.568l-.005.005h.011l-22.3,21.7a8.543,8.543,0,0,0-2.4,4.35l-3.6,16.883a2.97,2.97,0,0,0,.24,1.953,3,3,0,0,0,3.26,1.613l16.6-3.2a8.519,8.519,0,0,0,4.452-2.373l23-23.165h.005v10.018c0,.008,0,.018-.005.026v34.826a13.625,13.625,0,0,1-13.625,13.625Zm-8.854-16.082a4.361,4.361,0,0,0,3.776,2.18h26.153a4.358,4.358,0,0,0,4.354-4.36,4.359,4.359,0,0,0-4.36-4.361h-26.147a4.361,4.361,0,0,0-3.776,2.18,4.356,4.356,0,0,0-.584,2.18A4.356,4.356,0,0,0-4270.821-172.6Zm23.329-21.579a1.743,1.743,0,0,1,.056-.624c.846-3.105,2.152-7.9,2.869-10.474a2.309,2.309,0,0,1,.5-.849c7.106-7.113,11.989-11.975,19.106-19.082a1.246,1.246,0,0,1,.165-.113q5.065,4.919,10.175,9.884c-.2.215-.363.389-.532.559-6.968,6.963-11.708,11.692-18.691,18.64a2.745,2.745,0,0,1-1.185.7c-1.872.534-4.683,1.315-7.231,2.019l-.023.021-3.023.83a1.764,1.764,0,0,1-.465.063A1.739,1.739,0,0,1-4247.492-194.175Zm25.813-34.257c.145-.164.252-.3.375-.42,1.67-1.68,3.325-3.372,5.017-5.027a7.126,7.126,0,0,1,8.28-1.353,60.765,60.765,0,0,1,2.286,10.888c-.113.128-.221.257-.344.38-1.777,1.788-3.591,3.54-5.451,5.365Q-4216.575-223.488-4221.679-228.432Z" transform="translate(4283.985 236.074)"/>
        <path id="路径_1263" data-name="路径 1263" class="cls-1" d="M508.317,17.957q-5.058-4.9-10.161-9.833c.149-.164.256-.3.374-.42,1.671-1.676,3.326-3.372,5.016-5.027a7.122,7.122,0,0,1,10.222,9.92c-1.778,1.783-3.592,3.535-5.452,5.359" transform="translate(-435.854 -0.483)"/>
      </g>
    </g>
  </g>
</svg>
