<svg xmlns="http://www.w3.org/2000/svg" xmlns:xlink="http://www.w3.org/1999/xlink" width="80" height="80" viewBox="0 0 80 80">
  <defs>
    <style>
      .cls-1 {
        fill: currentColor;
      }

      .cls-2 {
        opacity: 1;
      }

      .cls-3 {
        clip-path: url(#clip-path);
      }

      .cls-4 {
        clip-path: url(#clip-path-2);
      }
    </style>
    <clipPath id="clip-path">
      <rect id="矩形_2155" data-name="矩形 2155" class="cls-1" width="79.925" height="69.778"/>
    </clipPath>
    <clipPath id="clip-path-2">
      <rect id="矩形_2156" data-name="矩形 2156" class="cls-1" width="80" height="80" transform="translate(0 -0.075)"/>
    </clipPath>
  </defs>
  <g id="组_3516" data-name="组 3516" class="cls-2" transform="translate(-0.121 0.075)">
    <g id="组_3513" data-name="组 3513" transform="translate(0.121 5.074)">
      <g id="组_3512" data-name="组 3512" class="cls-3" transform="translate(0)">
        <path id="路径_1325" data-name="路径 1325" class="cls-1" d="M60.956,140.507l-17.631-9.316,5.077-7.237a4.646,4.646,0,0,0,.848-2.677V107.308a16.927,16.927,0,0,0-33.853,0V121.24a4.687,4.687,0,0,0,.946,2.812l5.26,6.943-19.1,9.989A4.652,4.652,0,0,0,0,145.118v4.961a4.678,4.678,0,0,0,4.679,4.668H58.769a4.678,4.678,0,0,0,4.68-4.668v-5.447a4.662,4.662,0,0,0-2.492-4.125" transform="translate(-0.014 -85.079)"/>
        <path id="路径_1326" data-name="路径 1326" class="cls-1" d="M432.075,93.687l-17.631-9.316,5.078-7.237a4.646,4.646,0,0,0,.848-2.677V60.488A16.924,16.924,0,0,0,403.44,43.6a2.925,2.925,0,1,0,0,5.85A11.062,11.062,0,0,1,414.5,60.488v13.6l-5.635,8.026a4.66,4.66,0,0,0,1.644,6.8L428.7,98.523v3.555h-2.5a2.925,2.925,0,1,0,0,5.849h3.677a4.678,4.678,0,0,0,4.68-4.667V97.813a4.631,4.631,0,0,0-2.483-4.125" transform="translate(-354.719 -43.599)"/>
      </g>
    </g>
  </g>
</svg>
