<svg id="组_5411" data-name="组 5411" xmlns="http://www.w3.org/2000/svg" xmlns:xlink="http://www.w3.org/1999/xlink" width="24" height="24" viewBox="0 0 24 24">
  <defs>
    <style>
      .cls-1 {
        fill: currentColor;
      }

      .cls-2 {
        clip-path: url(#clip-path);
      }
    </style>
    <clipPath id="clip-path">
      <rect id="矩形_3133" data-name="矩形 3133" class="cls-1" width="24" height="24"/>
    </clipPath>
  </defs>
  <g id="组_5410" data-name="组 5410" class="cls-2">
    <path id="路径_1730" data-name="路径 1730" class="cls-1" d="M14,4h2a5,5,0,0,1,5,5v4H19V9a3,3,0,0,0-3-3H14V9L9,5l5-4Zm1,7V21a1,1,0,0,1-1,1H4a1,1,0,0,1-1-1V11a1,1,0,0,1,1-1H14a1,1,0,0,1,1,1"/>
  </g>
</svg>
