<svg xmlns="http://www.w3.org/2000/svg" xmlns:xlink="http://www.w3.org/1999/xlink" width="80" height="80" viewBox="0 0 80 80">
  <defs>
    <style>
      .cls-1, .cls-3 {
        fill: currentColor;
      }

      .cls-2 {
        clip-path: url(#clip-path);
      }

      .cls-3 {
        stroke: rgba(0,0,0,0);
        stroke-miterlimit: 10;
      }
    </style>
    <clipPath id="clip-path">
      <rect id="矩形_2139" data-name="矩形 2139" class="cls-1" width="80" height="80" transform="translate(0 0)"/>
    </clipPath>
  </defs>
  <g id="组_3488" data-name="组 3488" transform="translate(0 -0.001)">
    <g id="组_3487" data-name="组 3487" class="cls-2" transform="translate(0 0.001)">
      <path id="联合_14" data-name="联合 14" class="cls-3" d="M-4509.278-9815a14.635,14.635,0,0,1-6.432-1.48h0a14.8,14.8,0,0,1-7.128-7.513h0q-.1-.243-.2-.492l-.005-.014q-.062-.161-.119-.325l-.006-.017c-.017-.049-.035-.1-.051-.147a.165.165,0,0,0-.006-.019c-.036-.107-.071-.215-.1-.322l-.009-.031c-.016-.051-.031-.1-.046-.152l0-.006c-.016-.055-.032-.109-.048-.164l-.007-.026c-.013-.046-.026-.093-.039-.139l-.008-.03c-.015-.054-.029-.108-.043-.163l0-.008c-.013-.05-.026-.1-.038-.151,0-.013-.007-.026-.01-.04-.011-.046-.022-.091-.033-.137l-.006-.025c-.013-.054-.024-.107-.036-.161,0-.012-.005-.024-.008-.036-.009-.042-.018-.084-.027-.126,0-.016-.006-.031-.009-.046-.011-.054-.021-.106-.032-.159a.142.142,0,0,0,0-.017c-.009-.049-.018-.1-.027-.146l-.008-.047c-.008-.045-.016-.089-.023-.133,0-.011,0-.021-.005-.031-.009-.054-.018-.108-.026-.162l-.006-.04-.019-.129c0-.015,0-.029-.006-.044-.007-.055-.015-.109-.021-.164a.136.136,0,0,1,0-.016c-.006-.049-.012-.1-.018-.148l-.006-.05c0-.042-.009-.084-.014-.126l0-.044c-.005-.054-.011-.106-.016-.16,0-.015,0-.029,0-.043,0-.043-.007-.086-.011-.129,0-.016,0-.031,0-.047q-.007-.083-.012-.167s0,0,0-.006c0-.054-.006-.107-.009-.161,0-.017,0-.033,0-.05l-.006-.133v-.037c0-.057,0-.111-.005-.168,0-.013,0-.025,0-.038,0-.046,0-.091,0-.136,0-.016,0-.031,0-.047q0-.085,0-.17v-50.558a14.729,14.729,0,0,1,.264-2.783,14.748,14.748,0,0,1,14.452-11.94h19.827v0h5.639v14.775a13.17,13.17,0,0,0,.954,4.93l0,.007c.015.039.031.077.047.115a13.626,13.626,0,0,0,5.362,6.287l-.007.015a13.892,13.892,0,0,0,7.4,2.118h13.646v37.029A14.739,14.739,0,0,1-4471.139-9815Zm3.628-18.248h30.612a4.257,4.257,0,0,0,4.251-4.254,4.252,4.252,0,0,0-4.251-4.254h-30.612c-.064,0-.127,0-.19,0l-.024.011a4.231,4.231,0,0,0-2.617,1.077l-.027.011a4.243,4.243,0,0,0-1.4,3.15A4.254,4.254,0,0,0-4505.649-9833.248Zm30.612-16.3a4.255,4.255,0,0,0,4.251-4.252,4.25,4.25,0,0,0-4.251-4.251h-30.612a4.252,4.252,0,0,0-4.254,4.249,4.254,4.254,0,0,0,4.254,4.249H-4493l-.006,0Zm-30.612-16.306h15.505a4.252,4.252,0,0,0,4.251-4.254,4.25,4.25,0,0,0-4.251-4.254h-15.505a4.252,4.252,0,0,0-4.254,4.254,4.305,4.305,0,0,0,.377,1.743l0,0A4.255,4.255,0,0,0-4505.649-9865.858Zm35.583-9.395a5.368,5.368,0,0,1-4.069-1.829v0a4.953,4.953,0,0,1-.908-1.55v0l-.018-.051-.006-.017c0-.013-.008-.025-.013-.037s0-.015-.007-.022l-.011-.032-.007-.022c0-.012-.007-.023-.011-.034s0-.015-.006-.021l-.012-.04,0-.015-.015-.053v-.006l-.015-.054c0-.008,0-.015-.005-.021l-.008-.034c0-.008,0-.017-.006-.025l-.007-.031c0-.009,0-.018-.006-.026l-.006-.029-.006-.027-.007-.033c0-.008,0-.016,0-.023s-.005-.027-.008-.042l0-.015c0-.019-.007-.038-.011-.058l0-.013c0-.016-.005-.03-.008-.045s0-.014,0-.021l-.006-.038,0-.022c0-.012,0-.023-.005-.035s0-.017,0-.025l0-.034,0-.023c0-.013,0-.024,0-.037l0-.022c0-.019,0-.036-.005-.055v0c0-.02,0-.04-.005-.06v-.018l0-.043v-.02c0-.014,0-.026,0-.039s0-.017,0-.024,0-.024,0-.037,0-.015,0-.022v-.038c0-.008,0-.016,0-.022s0-.026,0-.039v-.022c0-.02,0-.039,0-.06v-13.209l16.315,18.176Z" transform="translate(4530.208 9895)"/>
    </g>
  </g>
</svg>
