<svg id="组_5406" data-name="组 5406" xmlns="http://www.w3.org/2000/svg" xmlns:xlink="http://www.w3.org/1999/xlink" width="24" height="24" viewBox="0 0 24 24">
  <defs>
    <style>
      .cls-1 {
        fill: currentColor;
      }

      .cls-2 {
        clip-path: url(#clip-path);
      }
    </style>
    <clipPath id="clip-path">
      <rect id="矩形_3131" data-name="矩形 3131" class="cls-1" width="24" height="24"/>
    </clipPath>
  </defs>
  <g id="组_5405" data-name="组 5405" class="cls-2">
    <path id="路径_1728" data-name="路径 1728" class="cls-1" d="M7,6V3A1,1,0,0,1,8,2H20a1,1,0,0,1,1,1V17a1,1,0,0,1-1,1H17v3a1,1,0,0,1-1.007,1H4.007A1,1,0,0,1,3,21V21L3,7A1,1,0,0,1,4.01,6ZM9,6h8V16h2V4H9Z" transform="translate(0 0)"/>
  </g>
</svg>
