<svg xmlns="http://www.w3.org/2000/svg" xmlns:xlink="http://www.w3.org/1999/xlink" width="80" height="80" viewBox="0 0 80 80">
  <defs>
    <style>
      .cls-1, .cls-2, .cls-5 {
        fill: currentColor;
      }

      .cls-1 {
        stroke: #707070;
      }

      .cls-3 {
        clip-path: url(#clip-path);
      }

      .cls-4 {
        clip-path: url(#clip-path-2);
      }

      .cls-5 {
        stroke: rgba(0,0,0,0);
        stroke-miterlimit: 10;
      }
    </style>
    <clipPath id="clip-path">
      <rect id="矩形_2146" data-name="矩形 2146" class="cls-1" width="80" height="80" transform="translate(349 425)"/>
    </clipPath>
    <clipPath id="clip-path-2">
      <rect id="矩形_2145" data-name="矩形 2145" class="cls-2" width="70.542" height="78.236" transform="translate(0)"/>
    </clipPath>
  </defs>
  <g id="蒙版组_3" data-name="蒙版组 3" class="cls-3" transform="translate(-349 -425)">
    <g id="组_3492" data-name="组 3492" transform="translate(320.521 426)">
      <g id="组_3491" data-name="组 3491" class="cls-4" transform="translate(33.479)">
        <path id="联合_16" data-name="联合 16" class="cls-5" d="M-4283.656-14992.94a12.835,12.835,0,0,1-1.347-.05,4.326,4.326,0,0,1-3.991-4.2c0-.071-.006-.142-.006-.213a4.426,4.426,0,0,1,3.453-4.433,7.253,7.253,0,0,1,1.627-.166c20.991-.008,39.335-.012,60.323-.008a5.15,5.15,0,0,1,4.029,1.574,4.451,4.451,0,0,1,1.052,3.529,4.28,4.28,0,0,1-3.794,3.893,11.572,11.572,0,0,1-1.449.064h-26.248l-.014.008Zm44.964-13.926h-46.314c-1.412,0-2.309-.253-2.83-.9a3.874,3.874,0,0,1-.608-2.5q0-.628,0-1.257c0-1.4,0-2.793,0-4.189,0-2.654.014-5.308.085-7.961a7.608,7.608,0,0,1,7.089-7.107c3.881-.095,7.766-.091,11.651-.091q2.4.006,4.8,0h1.407a11.09,11.09,0,0,0-1.417-4.572c-.064-.115-.13-.229-.2-.342q-.524-.88-1.086-1.737-.671-1.021-1.394-2.007-.363-.494-.738-.978h0l-.01-.013-.149-.191q-.45-.571-.848-1.168a18.687,18.687,0,0,1-3.164-10.362,18.686,18.686,0,0,1,7.053-14.734,18.483,18.483,0,0,1,5.337-2.962,18.526,18.526,0,0,1,8.679-.89v0a18.638,18.638,0,0,1,12.431,7.3q.371.5.706,1c4.817,7.249,4.117,16.264-1.92,23.042a15.974,15.974,0,0,0-3.9,8.013,4.722,4.722,0,0,0-.038.6h1.343q2.4.006,4.8,0c3.885,0,7.767,0,11.652.091a7.008,7.008,0,0,1,3.851,1.3h0a7.558,7.558,0,0,1,3.292,5.874c.121,4.668.087,9.34.061,14.016-.008,1.793-1.078,2.724-2.962,2.724q-3.569.007-7.14.007Z" transform="translate(4289 15071.068)"/>
      </g>
    </g>
  </g>
</svg>
