<svg id="组_3490" data-name="组 3490" xmlns="http://www.w3.org/2000/svg" xmlns:xlink="http://www.w3.org/1999/xlink" width="80" height="80" viewBox="0 0 80 80">
  <defs>
    <style>
      .cls-1, .cls-3 {
        fill: currentColor;
      }

      .cls-2 {
        clip-path: url(#clip-path);
      }

      .cls-3 {
        stroke: rgba(0,0,0,0);
        stroke-miterlimit: 10;
      }
    </style>
    <clipPath id="clip-path">
      <rect id="矩形_2140" data-name="矩形 2140" class="cls-1" width="80" height="80"/>
    </clipPath>
  </defs>
  <g id="组_3489" data-name="组 3489" class="cls-2">
    <path id="联合_17" data-name="联合 17" class="cls-3" d="M-4512.73-14990.139a11.284,11.284,0,0,1-11.271-11.271v-64.866a3.725,3.725,0,0,1,3.725-3.726h0a3.726,3.726,0,0,1,3.726,3.726v54.651h-.008v10.215a3.822,3.822,0,0,0,3.816,3.816h65.014a3.728,3.728,0,0,1,3.725,3.726,3.733,3.733,0,0,1-3.725,3.729Zm51.542-11.978a1.749,1.749,0,0,1-1.747-1.751v-54.488a1.748,1.748,0,0,1,1.747-1.751h13.374a1.749,1.749,0,0,1,1.748,1.751v54.488a1.749,1.749,0,0,1-1.748,1.751Zm-23.589,0a1.749,1.749,0,0,1-1.747-1.751v-62.786a1.747,1.747,0,0,1,1.747-1.747h.668c.045,0,.092,0,.138,0h4.5l0,0h8.065a1.748,1.748,0,0,1,1.748,1.747v.663c0,.046,0,.092,0,.139v31.77l0,0v30.219a1.748,1.748,0,0,1-1.748,1.743Zm-23.588,0a1.749,1.749,0,0,1-1.748-1.751v-31.176a1.748,1.748,0,0,1,1.748-1.747h13.373a1.748,1.748,0,0,1,1.748,1.747v.611q.007.094.007.19v17.068l-.007,0v13.3a1.749,1.749,0,0,1-1.748,1.751Z" transform="translate(4524 15070.07)"/>
    <path id="路径_1299" data-name="路径 1299" class="cls-1" d="M58.872,72.938H11.3a3.82,3.82,0,0,1-3.815-3.815V4.255a3.724,3.724,0,0,0-7.448,0V69.123A11.281,11.281,0,0,0,11.309,80.392H42.726a68.409,68.409,0,0,0,16.146-7.453m19.1-59.964a2.551,2.551,0,0,0-2.549-2.548H63.648A2.551,2.551,0,0,0,61.1,12.974V65.866a2.551,2.551,0,0,0,2.549,2.548h1.577A69.328,69.328,0,0,0,77.964,55.07v-42.1Z" transform="translate(-0.035 -0.461)"/>
  </g>
</svg>
