<svg xmlns="http://www.w3.org/2000/svg" xmlns:xlink="http://www.w3.org/1999/xlink" width="80" height="80" viewBox="0 0 80 80">
  <defs>
    <style>
      .cls-1, .cls-2 {
        fill: currentColor;
      }

      .cls-1 {
        stroke: #707070;
      }

      .cls-3 {
        clip-path: url(#clip-path);
      }

      .cls-4 {
        clip-path: url(#clip-path-2);
      }
    </style>
    <clipPath id="clip-path">
      <rect id="矩形_3182" data-name="矩形 3182" class="cls-1" width="80" height="80" transform="translate(319 258)"/>
    </clipPath>
    <clipPath id="clip-path-2">
      <rect id="矩形_2147" data-name="矩形 2147" class="cls-2" width="80" height="74.962"/>
    </clipPath>
  </defs>
  <g id="蒙版组_16" data-name="蒙版组 16" class="cls-3" transform="translate(-319 -258)">
    <g id="组_3497" data-name="组 3497" transform="translate(318.999 257.481)">
      <g id="组_3494" data-name="组 3494" transform="translate(0.001 2.519)">
        <g id="组_3493" data-name="组 3493" class="cls-4" transform="translate(0 0)">
          <path id="路径_1306" data-name="路径 1306" class="cls-2" d="M348.583,335.1l8.818-8.679a3.866,3.866,0,0,1,5.249-.1,3.366,3.366,0,0,1,.107,4.956l-3.691,3.632h23.085a3.509,3.509,0,1,1,0,7.006H358.789l3.126,3.227a3.368,3.368,0,0,1-.234,4.951,3.867,3.867,0,0,1-5.245-.221l-7.937-8.192a4.626,4.626,0,0,1,.083-6.578" transform="translate(-305.898 -289.114)"/>
          <path id="路径_1307" data-name="路径 1307" class="cls-2" d="M76.551,60.452c-.1,0-.194.014-.3.014H62.212a8.816,8.816,0,0,1,.014,1.016,8.232,8.232,0,0,1-2.9,5.866,9.331,9.331,0,0,1-12.655-.538l-7.932-8.192a9.389,9.389,0,0,1,.17-13.349l8.818-8.679A9.347,9.347,0,0,1,57.6,34.631a19.572,19.572,0,0,0,3.676-11.387c0-11.309-9.748-20.512-21.727-20.512s-21.741,9.2-21.741,20.512a20.023,20.023,0,0,0,7.718,15.662,40.015,40.015,0,0,0-12.894,7.521A36.542,36.542,0,0,0,.022,70.754,6.2,6.2,0,0,0,0,71.43,6.042,6.042,0,0,0,1.74,75.553,6.829,6.829,0,0,0,6.6,77.562h.01c9-.014,17.676-.074,26.065-.138q3.5-.028,6.846-.051,3.367.021,6.88.051c8.385.06,17.062.124,26.065.138h.01a6.815,6.815,0,0,0,4.865-2.014,6.02,6.02,0,0,0,1.738-4.119,6.406,6.406,0,0,0-.02-.68,35.688,35.688,0,0,0-2.513-10.3" transform="translate(0 -2.708)"/>
        </g>
      </g>
    </g>
  </g>
</svg>
